<svg width="28" height="28" viewBox="0 0 28 28" fill="none" xmlns="http://www.w3.org/2000/svg">
<rect width="28" height="28" rx="4.03604" fill="url(#paint0_linear_10645_75488)"/>
<path fill-rule="evenodd" clip-rule="evenodd" d="M17.9608 8.21046C18.8015 8.21046 19.583 8.36452 20.329 8.6608C21.075 8.98078 21.7026 9.39557 22.2473 9.91701C22.792 10.4503 23.2301 11.0784 23.538 11.7895C23.8577 12.5005 23.9998 13.2827 23.9998 14.1004C23.9998 14.9181 23.8459 15.6885 23.538 16.4114C23.2183 17.1224 22.792 17.7505 22.2473 18.2838C21.7026 18.8171 21.075 19.2319 20.329 19.5282C19.583 19.8482 18.8015 19.9904 17.9608 19.9904H13.4492V8.21045L17.9608 8.21046ZM19.4529 17.478C19.9029 17.3002 20.2818 17.0276 20.6015 16.6958C20.9212 16.3639 21.1462 15.961 21.3357 15.5225C21.5133 15.0722 21.5962 14.61 21.5962 14.1004C21.5962 13.5908 21.5133 13.1049 21.3357 12.6546C21.1581 12.2042 20.9212 11.825 20.6015 11.4932C20.2818 11.1614 19.9029 10.9006 19.4529 10.6992C19.0029 10.5214 18.5056 10.4147 17.9609 10.4147H15.8531V17.7742H17.9609C18.5056 17.7742 19.0029 17.6794 19.4529 17.478V17.478Z" fill="white"/>
<path fill-rule="evenodd" clip-rule="evenodd" d="M7.59977 8.00977C5.61041 8.00977 4 9.62151 4 11.6125C4 13.6035 5.61042 15.2152 7.59977 15.2152C9.58909 15.2152 11.1995 13.6035 11.1995 11.6125C11.1877 9.62151 9.57724 8.00977 7.59977 8.00977ZM7.59981 13.0818C6.78276 13.0818 6.11964 12.4181 6.11964 11.6004C6.11964 10.7826 6.78276 10.119 7.59981 10.119C8.41684 10.119 9.07997 10.7827 9.07997 11.6004C9.06812 12.4181 8.40502 13.0818 7.59981 13.0818Z" fill="white"/>
<defs>
<linearGradient id="paint0_linear_10645_75488" x1="1.11111" y1="3.4343e-06" x2="30.7835" y2="4.21105" gradientUnits="userSpaceOnUse">
<stop stop-color="#FDC830"/>
<stop offset="1" stop-color="#F37335"/>
</linearGradient>
</defs>
</svg>
