<svg width="27" height="20" viewBox="0 0 27 20" fill="none" xmlns="http://www.w3.org/2000/svg">
<path d="M0.333984 0H23.6673C25.5083 0 27.0007 1.49238 27.0007 3.33333V20H3.66732C1.82637 20 0.333984 18.5076 0.333984 16.6667V0Z" fill="url(#paint0_linear_10438_75089)"/>
<path fill-rule="evenodd" clip-rule="evenodd" d="M6.92879 5.30333C5.85574 5.8317 5.33398 6.70255 5.33398 7.98435C5.33398 8.90411 5.5801 9.54991 6.16092 10.1174C6.71221 10.6752 7.24381 10.9002 8.10028 10.9491C9.17332 11.0078 9.75415 10.8024 10.4629 10.0979C11.1028 9.46184 11.3391 8.88455 11.3391 7.98435C11.3391 7.16243 11.1127 6.56556 10.5712 5.96869C9.93135 5.2544 9.34068 5 8.3267 5C7.63759 5 7.45054 5.03914 6.92879 5.30333ZM9.20286 7.25049C9.50804 7.59296 9.55726 8.07241 9.32099 8.52251C9.11426 8.92368 8.79923 9.10959 8.3267 9.10959C7.5293 9.10959 6.94848 8.30724 7.23397 7.62231C7.60805 6.75147 8.57281 6.56556 9.20286 7.25049Z" fill="white"/>
<path fill-rule="evenodd" clip-rule="evenodd" d="M13.1111 15V5.07827L15.6018 5.1174C17.8463 5.15654 18.1416 5.1859 18.6732 5.38159C20.7307 6.12523 22.0007 7.89627 22.0007 10.0391C22.0007 12.2113 20.7209 13.9726 18.624 14.6967C18.0432 14.9022 17.7675 14.9217 15.5525 14.9609L13.1111 15ZM19.7069 8.96281C19.4116 8.17025 18.6535 7.4266 17.925 7.21134C17.5903 7.11349 17.0194 7.05478 16.3401 7.05478H15.2769V13.0431L16.537 13.0039C17.6592 12.9746 17.8364 12.9452 18.2893 12.7104C19.6183 12.0254 20.2385 10.3816 19.7069 8.96281Z" fill="white"/>
<defs>
<linearGradient id="paint0_linear_10438_75089" x1="1.39219" y1="2.45307e-06" x2="29.2242" y2="5.2665" gradientUnits="userSpaceOnUse">
<stop stop-color="#FDC830"/>
<stop offset="1" stop-color="#F37335"/>
</linearGradient>
</defs>
</svg>
