<svg width="139" height="24" viewBox="0 0 139 24" fill="none" xmlns="http://www.w3.org/2000/svg">
<path d="M0.5 2.82353C0.5 1.26414 1.76414 0 3.32353 0H135.324C136.883 0 138.147 1.26414 138.147 2.82353V21.1765C138.147 22.7359 136.883 24 135.324 24H3.32353C1.76414 24 0.5 22.7359 0.5 21.1765V2.82353Z" fill="white"/>
<path fill-rule="evenodd" clip-rule="evenodd" d="M135.324 1.05882H3.32353C2.34891 1.05882 1.55882 1.84891 1.55882 2.82353V21.1765C1.55882 22.1511 2.34891 22.9412 3.32353 22.9412H135.324C136.298 22.9412 137.088 22.1511 137.088 21.1765V2.82353C137.088 1.84891 136.298 1.05882 135.324 1.05882ZM3.32353 0C1.76414 0 0.5 1.26414 0.5 2.82353V21.1765C0.5 22.7359 1.76414 24 3.32353 24H135.324C136.883 24 138.147 22.7359 138.147 21.1765V2.82353C138.147 1.26414 136.883 0 135.324 0H3.32353Z" fill="black"/>
<path d="M0.5 2.83077C0.5 1.26738 1.76738 0 3.33077 0H60.4056V24H3.33077C1.76738 24 0.5 22.7326 0.5 21.1692V2.83077Z" fill="black"/>
<path fill-rule="evenodd" clip-rule="evenodd" d="M15.2695 17.3975C15.2674 16.9547 15.6269 16.6001 16.0643 16.6001C16.5037 16.6001 16.8611 16.9557 16.8611 17.3963C16.8611 17.8359 16.5046 18.1924 16.065 18.1924C15.6271 18.1924 15.2695 17.8379 15.2695 17.3975ZM15.604 17.3953L15.2696 17.3937C15.2695 17.395 15.2695 17.3963 15.2695 17.3975" fill="white"/>
<path fill-rule="evenodd" clip-rule="evenodd" d="M20.9489 12.3912C18.256 9.92138 13.8735 9.92138 11.1805 12.3912C10.9645 12.5893 10.6288 12.5748 10.4306 12.3588C10.2325 12.1428 10.247 11.807 10.463 11.6089C13.5619 8.76677 18.5676 8.76677 21.6664 11.6089C21.8825 11.807 21.897 12.1428 21.6988 12.3588C21.5007 12.5748 21.1649 12.5893 20.9489 12.3912Z" fill="white"/>
<path fill-rule="evenodd" clip-rule="evenodd" d="M23.078 9.42864C19.2115 6.01632 12.9184 6.01632 9.05191 9.42864C8.83213 9.62261 8.49671 9.60169 8.30275 9.3819C8.10878 9.16212 8.1297 8.82671 8.34949 8.63274C12.6173 4.86624 19.5126 4.86624 23.7804 8.63274C24.0002 8.82671 24.0211 9.16212 23.8271 9.3819C23.6332 9.60169 23.2978 9.62261 23.078 9.42864Z" fill="white"/>
<path fill-rule="evenodd" clip-rule="evenodd" d="M18.8175 15.0806C17.297 13.5682 14.8298 13.5682 13.3094 15.0806C13.1015 15.2873 12.7655 15.2864 12.5588 15.0785C12.352 14.8707 12.3529 14.5347 12.5608 14.3279C14.4953 12.4037 17.6316 12.4037 19.5661 14.3279C19.7739 14.5347 19.7748 14.8707 19.5681 15.0785C19.3614 15.2864 19.0253 15.2873 18.8175 15.0806Z" fill="white"/>
<path d="M30.1614 15.8086H31.6461L33.0148 11.0976H33.071L34.4432 15.8086H35.928L37.9897 8.60305H36.3255L35.1328 13.6202H35.0695L33.7571 8.60305H32.3322L31.0163 13.6097H30.9565L29.7638 8.60305H28.0996L30.1614 15.8086Z" fill="white"/>
<path d="M38.7769 15.8086H40.2758V10.4045H38.7769V15.8086ZM39.5299 9.70782C39.9767 9.70782 40.3426 9.36654 40.3426 8.94785C40.3426 8.53269 39.9767 8.19141 39.5299 8.19141C39.0866 8.19141 38.7206 8.53269 38.7206 8.94785C38.7206 9.36654 39.0866 9.70782 39.5299 9.70782Z" fill="white"/>
<path d="M44.8435 12.2551H41.5573V13.4443H44.8435V12.2551Z" fill="white"/>
<path d="M46.1488 15.8086H47.6722V12.8321H50.603V11.5761H47.6722V9.85911H50.9197V8.60305H46.1488V15.8086Z" fill="white"/>
<path d="M51.9162 15.8086H53.4151V10.4045H51.9162V15.8086ZM52.6692 9.70782C53.116 9.70782 53.4819 9.36654 53.4819 8.94785C53.4819 8.53269 53.116 8.19141 52.6692 8.19141C52.2259 8.19141 51.86 8.53269 51.86 8.94785C51.86 9.36654 52.2259 9.70782 52.6692 9.70782Z" fill="white"/>
<path d="M74.0523 7.43598C73.5596 7.65864 73.1474 8.02634 72.8715 8.48942C72.5955 8.9525 72.4691 9.48865 72.5092 10.0255C72.487 10.4073 72.5454 10.7895 72.6807 11.1474C72.8195 11.5026 73.0334 11.824 73.3078 12.0899C73.5479 12.3461 73.8381 12.5508 74.1606 12.6913C74.4849 12.8267 74.833 12.8969 75.1848 12.8977C75.605 12.9598 76.0342 12.9169 76.4335 12.7727C76.8329 12.6285 77.1899 12.3877 77.4722 12.0719C77.7568 11.8153 77.9805 11.4989 78.1272 11.1458C78.2739 10.7927 78.3399 10.4116 78.3205 10.03C78.3349 9.67161 78.275 9.31413 78.1445 8.97981C78.0174 8.64575 77.824 8.34052 77.576 8.08223C77.318 7.76064 76.985 7.50647 76.606 7.34173C76.2266 7.17898 75.8134 7.1097 75.4013 7.13978C74.9316 7.09575 74.4598 7.19935 74.0523 7.43598ZM76.2495 9.32088C76.3965 9.48773 76.4866 9.69659 76.5068 9.91749C76.5271 10.1384 76.4765 10.36 76.3623 10.5506C76.2845 10.7376 76.1485 10.8948 75.9743 10.9993C75.8014 11.1008 75.6016 11.1478 75.4013 11.134C75.2257 11.1369 75.052 11.0976 74.8949 11.0195C74.7378 10.9414 74.602 10.8267 74.499 10.6852C74.3961 10.534 74.3325 10.3597 74.314 10.1781C74.286 10.005 74.3015 9.82767 74.3591 9.66196C74.4215 9.47916 74.531 9.31582 74.6766 9.18825C74.8223 9.06068 74.9991 8.97333 75.1893 8.93493C75.3842 8.8994 75.5852 8.91644 75.7713 8.98429C75.9585 9.04899 76.124 9.16393 76.2495 9.3164V9.32088Z" fill="black"/>
<path d="M80.0254 12.0135V16.811L82.3851 16.7751C84.5282 16.7392 84.7944 16.7168 85.3539 16.5193C86.31 16.2183 87.1436 15.6196 87.7317 14.8116C88.3198 14.0035 88.6314 13.0289 88.6204 12.0314C88.6264 11.042 88.3188 10.0759 87.7412 9.27026C87.1638 8.46463 86.3458 7.86046 85.4035 7.54356C84.8891 7.31916 84.6049 7.29224 82.4347 7.25185L80.0254 7.21594V12.0135ZM84.6906 9.28036C85.083 9.42529 85.4398 9.65172 85.7374 9.94457C86.0353 10.236 86.2661 10.5881 86.4141 10.9768C86.6645 11.6414 86.6655 12.3736 86.4169 13.0389C86.1682 13.7042 85.6866 14.258 85.0606 14.5985C84.6094 14.8274 84.4515 14.8543 83.3687 14.8857L82.1505 14.9216V9.12778H83.1792C83.6874 9.11488 84.1953 9.16616 84.6906 9.28036Z" fill="black"/>
<path d="M92.1212 7.44482C91.7106 8.58025 88.9629 16.6046 88.9629 16.6898C88.9629 16.7751 89.2471 16.793 90.0277 16.7751L91.0834 16.7482L91.4128 15.7743L91.7377 14.8094H95.6765L96.0013 15.8012L96.3262 16.7975H97.4C97.7584 16.8065 98.1171 16.793 98.4738 16.7571C98.4738 16.7123 95.3922 7.66472 95.2885 7.39994C95.2388 7.25633 95.0674 7.23837 93.7138 7.23837C92.234 7.23389 92.1934 7.23389 92.1212 7.44482ZM94.4673 11.0755L95.1351 13.0906H93.7138C92.6084 13.0906 92.2926 13.0591 92.3332 12.9649L93.028 10.8915C93.2138 10.2435 93.4522 9.61167 93.7409 9.00211C93.7725 9.05147 94.0973 9.98944 94.4673 11.0755Z" fill="black"/>
<path d="M99.9141 12.0135V16.7931H101.913V7.23389H99.9141V12.0135Z" fill="black"/>
<path d="M114.373 12.0135V16.7931H116.467V12.8168H120.559V16.7931H122.652V7.23389H120.559V11.1159H116.467V7.23389H114.373V12.0135Z" fill="black"/>
<path d="M124.652 12.0135V16.7931H126.651V7.23389H124.652V12.0135Z" fill="black"/>
<path d="M108.729 7.0589H108.449H108.278C108.097 7.05792 107.916 7.06841 107.736 7.09032C107.573 7.10386 107.41 7.12634 107.249 7.15763L107.15 7.18456C107.025 7.21515 106.901 7.25261 106.78 7.29676L106.572 7.36408L106.347 7.48525C105.742 7.77098 105.202 8.17618 104.76 8.67615C104.318 9.17612 103.983 9.7604 103.775 10.3934C103.734 10.5217 103.699 10.652 103.671 10.7838C103.564 11.1971 103.513 11.6227 103.518 12.0494C103.518 12.1078 103.518 12.1616 103.518 12.2155C103.518 12.3546 103.518 12.4892 103.55 12.6239C103.581 12.7585 103.55 12.7944 103.586 12.8752C103.622 12.956 103.626 13.0951 103.653 13.2028C103.68 13.3105 103.694 13.3733 103.716 13.4586C103.739 13.5439 103.807 13.7413 103.861 13.885C103.915 14.0286 103.96 14.1183 104.019 14.235L104.113 14.4325C104.177 14.5447 104.24 14.6569 104.308 14.7601C104.32 14.7856 104.335 14.8097 104.353 14.8319C104.916 15.6932 105.743 16.3511 106.712 16.7078L106.933 16.7796L107.087 16.8245C107.186 16.8469 107.281 16.8739 107.38 16.8918H107.502L107.822 16.9412H108.052C108.125 16.9412 108.197 16.9412 108.269 16.9412C109.214 16.9257 110.132 16.6305 110.908 16.0934C111.683 15.5562 112.28 14.8014 112.623 13.9253C112.718 13.656 112.794 13.38 112.848 13.0996C112.848 12.9964 112.636 12.9649 111.829 12.9649H110.805L110.624 13.4137C110.204 14.428 109.446 14.8992 108.237 14.8992C107.917 14.9349 107.592 14.8949 107.29 14.7825C106.988 14.6705 106.716 14.4908 106.496 14.2574C106.04 13.8177 105.757 13.2304 105.697 12.6014C105.44 11.1249 106.013 9.80997 107.141 9.22205C107.856 8.99757 108.623 8.99757 109.338 9.22205C109.897 9.46908 110.341 9.91832 110.579 10.4787L110.805 10.9993H111.833C112.993 11.0172 112.948 11.0755 112.663 10.178C112.663 10.1151 112.614 10.0523 112.596 9.98948C112.274 9.20155 111.745 8.51398 111.065 7.99851C110.385 7.48304 109.578 7.15855 108.729 7.0589Z" fill="black"/>
</svg>
