<svg width="80" height="48" viewBox="0 0 80 48" fill="none" xmlns="http://www.w3.org/2000/svg">
<path fill-rule="evenodd" clip-rule="evenodd" d="M7.59617 1.45597C2.48517 3.99218 0 8.17222 0 14.3249C0 18.7397 1.17225 21.8396 3.93875 24.5636C6.56459 27.2407 9.09665 28.321 13.1761 28.5558C18.2871 28.8376 21.0536 27.8513 24.4296 24.4697C27.4775 21.4169 28.6029 18.6458 28.6029 14.3249C28.6029 10.3797 27.5244 7.51469 24.9454 4.64971C21.8976 1.22114 19.0842 0 14.2545 0C10.9722 0 10.0813 0.187866 7.59617 1.45597ZM18.4277 10.8024C19.8813 12.4462 20.1158 14.7476 18.9904 16.908C18.0057 18.8337 16.5053 19.726 14.2545 19.726C10.4565 19.726 7.68995 15.8748 9.04976 12.5871C10.8316 8.40705 15.4268 7.51469 18.4277 10.8024Z" fill="currentColor"/>
<path fill-rule="evenodd" clip-rule="evenodd" d="M37.043 48V0.375673L48.9062 0.563539C59.5971 0.751405 61.0038 0.892308 63.5358 1.83164C73.3358 5.40112 79.3846 13.9021 79.3846 24.1878C79.3846 34.6145 73.2889 43.0685 63.3014 46.544C60.5349 47.5303 59.2219 47.6243 48.6717 47.8121L37.043 48ZM68.4593 19.0215C67.0526 15.2172 63.442 11.6477 59.9722 10.6144C58.3779 10.1448 55.6583 9.86296 52.4229 9.86296H47.3588V38.6066L53.3607 38.4188C58.7062 38.2779 59.5502 38.137 61.7071 37.0098C68.0372 33.7221 70.9913 25.8317 68.4593 19.0215Z" fill="currentColor"/>
</svg>
