<svg width="28" height="28" fill="none" xmlns="http://www.w3.org/2000/svg"><rect width="28" height="28" rx="4.036" fill="url(#paint0_linear_10645_75488)"/><path fill-rule="evenodd" clip-rule="evenodd" d="M17.96 8.21c.841 0 1.623.155 2.369.45.746.32 1.374.736 1.918 1.257a5.882 5.882 0 011.291 1.873c.32.71.462 1.493.462 2.31 0 .818-.154 1.588-.462 2.311a6.079 6.079 0 01-1.29 1.873 5.708 5.708 0 01-1.919 1.244c-.746.32-1.527.462-2.368.462h-4.512V8.21h4.512zm1.493 9.268a3.25 3.25 0 001.149-.782c.32-.332.544-.735.734-1.174.177-.45.26-.912.26-1.422 0-.51-.083-.995-.26-1.445a3.464 3.464 0 00-.734-1.162 3.616 3.616 0 00-1.15-.794 4.03 4.03 0 00-1.491-.284h-2.108v7.36h2.108c.545 0 1.042-.096 1.492-.297zM7.6 8.01A3.6 3.6 0 004 11.613a3.6 3.6 0 107.2 0C11.188 9.622 9.577 8.01 7.6 8.01zm0 5.072A1.481 1.481 0 119.08 11.6c-.012.818-.675 1.482-1.48 1.482z" fill="#fff"/><defs><linearGradient id="paint0_linear_10645_75488" x1="1.111" y1="0" x2="30.784" y2="4.211" gradientUnits="userSpaceOnUse"><stop stop-color="#FDC830"/><stop offset="1" stop-color="#F37335"/></linearGradient></defs></svg>