<svg width="27" height="20" fill="none" xmlns="http://www.w3.org/2000/svg"><path d="M.334 0h23.333a3.333 3.333 0 013.334 3.333V20H3.667a3.333 3.333 0 01-3.333-3.333V0z" fill="url(#paint0_linear_10438_75089)"/><path fill-rule="evenodd" clip-rule="evenodd" d="M6.929 5.303c-1.073.529-1.595 1.4-1.595 2.681 0 .92.246 1.566.827 2.133.551.558 1.083.783 1.94.832 1.072.059 1.653-.147 2.362-.851.64-.636.876-1.213.876-2.114 0-.822-.226-1.418-.768-2.015C9.931 5.254 9.341 5 8.327 5c-.69 0-.876.04-1.398.303zM9.203 7.25c.305.343.354.822.118 1.273-.207.4-.522.587-.994.587-.798 0-1.379-.803-1.093-1.488.374-.87 1.339-1.056 1.969-.372zM13.111 15V5.078l2.49.04c2.245.039 2.54.068 3.072.264 2.058.743 3.328 2.514 3.328 4.657 0 2.172-1.28 3.934-3.377 4.658-.58.205-.857.225-3.071.264L13.11 15zm6.596-6.037c-.295-.793-1.053-1.536-1.782-1.752-.335-.098-.906-.156-1.585-.156h-1.063v5.988l1.26-.04c1.122-.028 1.3-.058 1.752-.293 1.33-.685 1.95-2.328 1.418-3.747z" fill="#fff"/><defs><linearGradient id="paint0_linear_10438_75089" x1="1.392" y1="0" x2="29.224" y2="5.266" gradientUnits="userSpaceOnUse"><stop stop-color="#FDC830"/><stop offset="1" stop-color="#F37335"/></linearGradient></defs></svg>