<svg width="139" height="24" fill="none" xmlns="http://www.w3.org/2000/svg"><path d="M.5 2.824A2.824 2.824 0 013.324 0h132a2.823 2.823 0 012.823 2.824v18.352A2.823 2.823 0 01135.324 24h-132A2.824 2.824 0 01.5 21.177V2.823z" fill="#fff"/><path fill-rule="evenodd" clip-rule="evenodd" d="M135.324 1.059h-132c-.975 0-1.765.79-1.765 1.765v18.352c0 .975.79 1.765 1.765 1.765h132c.974 0 1.764-.79 1.764-1.764V2.823c0-.975-.79-1.765-1.764-1.765zM3.324 0A2.824 2.824 0 00.5 2.824v18.352A2.824 2.824 0 003.324 24h132a2.823 2.823 0 002.823-2.823V2.823A2.823 2.823 0 00135.324 0h-132z" fill="#000"/><path d="M.5 2.83A2.83 2.83 0 013.33 0h57.076v24H3.33A2.83 2.83 0 01.5 21.17V2.83z" fill="#000"/><path fill-rule="evenodd" clip-rule="evenodd" d="M15.27 17.398a.796.796 0 111.59-.002.796.796 0 01-1.59.002zm.334-.003l-.334-.001v.004m5.679-5.007c-2.693-2.47-7.076-2.47-9.769 0a.53.53 0 01-.717-.782c3.099-2.842 8.105-2.842 11.203 0a.53.53 0 11-.717.782z" fill="#fff"/><path fill-rule="evenodd" clip-rule="evenodd" d="M23.078 9.429c-3.866-3.413-10.16-3.413-14.026 0a.53.53 0 11-.703-.796c4.268-3.767 11.164-3.767 15.431 0a.53.53 0 11-.702.796zm-4.261 5.651a3.91 3.91 0 00-5.508 0 .53.53 0 11-.748-.752 4.972 4.972 0 017.005 0 .53.53 0 01-.748.753z" fill="#fff"/><path d="M30.161 15.809h1.485l1.369-4.711h.056l1.372 4.71h1.485l2.062-7.205h-1.665l-1.192 5.017h-.064l-1.312-5.017h-1.425l-1.316 5.007h-.06l-1.192-5.007H28.1l2.061 7.206zm8.616 0h1.499v-5.404h-1.5v5.404zm.753-6.101c.447 0 .813-.341.813-.76 0-.415-.366-.757-.813-.757-.443 0-.81.342-.81.757 0 .419.367.76.81.76zm5.313 2.547h-3.286v1.19h3.286v-1.19zm1.306 3.554h1.523v-2.977h2.931v-1.256h-2.93V9.86h3.247V8.603h-4.771v7.206zm5.767 0h1.5v-5.404h-1.5v5.404zm.753-6.101c.447 0 .813-.341.813-.76 0-.415-.366-.757-.813-.757-.443 0-.809.342-.809.757 0 .419.366.76.81.76z" fill="#fff"/><path d="M74.052 7.436c-.492.223-.905.59-1.18 1.053-.276.463-.403 1-.363 1.536-.022.382.036.764.172 1.122.139.356.352.677.627.943.24.256.53.46.853.601.324.136.672.206 1.024.207a2.57 2.57 0 002.287-.826 2.58 2.58 0 00.849-2.042 2.6 2.6 0 00-.177-1.05 2.664 2.664 0 00-.568-.898 2.543 2.543 0 00-2.175-.942 2.27 2.27 0 00-1.349.296zm2.197 1.885a1.047 1.047 0 01.113 1.23.948.948 0 01-.388.448.997.997 0 01-.573.135 1.097 1.097 0 01-.902-.449 1.1 1.1 0 01-.185-.507 1.058 1.058 0 01.045-.516 1.104 1.104 0 01.83-.727 1.1 1.1 0 01.582.05c.188.064.353.179.478.331v.005zm3.776 2.693v4.797l2.36-.036c2.143-.036 2.41-.058 2.969-.256.956-.3 1.79-.9 2.378-1.707.588-.808.9-1.783.888-2.78a4.69 4.69 0 00-.879-2.762 4.73 4.73 0 00-2.338-1.726c-.514-.225-.798-.252-2.968-.292l-2.41-.036v4.798zm4.666-2.734a2.945 2.945 0 011.723 1.697 2.94 2.94 0 01.003 2.062 2.954 2.954 0 01-1.356 1.56c-.452.228-.61.255-1.692.287l-1.219.036V9.128h1.03a6.045 6.045 0 011.51.152zm7.43-1.835c-.41 1.135-3.158 9.16-3.158 9.245 0 .085.284.103 1.065.085l1.055-.027.33-.974.325-.965h3.939l.324.992.325.996H97.4c.358.01.717-.004 1.074-.04 0-.045-3.082-9.092-3.186-9.357-.05-.144-.22-.162-1.574-.162-1.48-.004-1.52-.004-1.593.207zm2.346 3.63l.668 2.016h-1.421c-1.106 0-1.421-.032-1.38-.126l.694-2.073c.186-.649.424-1.28.713-1.89.031.05.356.987.726 2.073zm5.447.939v4.78h1.999v-9.56h-1.999v4.78zm14.459 0v4.78h2.094v-3.977h4.092v3.976h2.093v-9.56h-2.093v3.883h-4.092V7.234h-2.094v4.78zm10.279 0v4.78h1.999v-9.56h-1.999v4.78zm-15.923-4.955h-.451a4.293 4.293 0 00-.542.031 4.515 4.515 0 00-.487.068l-.099.027c-.125.03-.249.068-.37.112l-.208.067-.225.121a4.925 4.925 0 00-2.572 2.908 4.044 4.044 0 00-.104.39 4.824 4.824 0 00-.153 1.266v.167c0 .139 0 .273.032.408.031.134 0 .17.036.251.036.081.04.22.067.328l.063.256c.023.085.091.282.145.426.054.144.099.233.158.35l.094.197c.064.113.127.225.195.328a4.797 4.797 0 002.404 1.948l.221.072.154.044c.099.023.194.05.293.068h.122l.32.05h.447a4.774 4.774 0 002.639-.849 4.742 4.742 0 001.715-2.168 5.75 5.75 0 00.225-.825c0-.104-.212-.135-1.019-.135h-1.024l-.181.449c-.42 1.014-1.178 1.485-2.387 1.485a2.09 2.09 0 01-1.741-.642 2.65 2.65 0 01-.799-1.656c-.257-1.476.316-2.791 1.444-3.379a3.668 3.668 0 012.197 0 2.402 2.402 0 011.241 1.257l.226.52h1.028c1.16.018 1.115.076.83-.821 0-.063-.049-.126-.067-.189A4.758 4.758 0 00111.065 8a4.792 4.792 0 00-2.336-.94z" fill="#000"/></svg>